<?xml version="1.0" standalone="no"?>
<!DOCTYPE svg PUBLIC "-//W3C//DTD SVG 20010904//EN"
 "http://www.w3.org/TR/2001/REC-SVG-20010904/DTD/svg10.dtd">
<svg version="1.0" xmlns="http://www.w3.org/2000/svg"
 width="512.000000pt" height="512.000000pt" viewBox="0 0 512.000000 512.000000"
 preserveAspectRatio="xMidYMid meet">
<metadata>
Created by potrace 1.15, written by Peter Selinger 2001-2017
</metadata>
<g transform="translate(0.000000,512.000000) scale(0.100000,-0.100000)"
fill="#000000" stroke="none">
<path d="M1973 4613 c323 -2 851 -2 1175 0 323 1 58 2 -588 2 -646 0 -911 -1
-587 -2z"/>
<path d="M1376 4584 c-3 -8 -10 -13 -14 -10 -5 3 -16 -9 -26 -27 l-18 -32 22
25 21 25 -16 -33 c-9 -18 -20 -30 -25 -27 -6 3 -7 0 -5 -7 3 -8 -2 -22 -10
-33 -15 -19 -16 -19 -5 5 10 23 10 24 -4 6 -9 -10 -13 -23 -10 -27 8 -14 -66
-140 -78 -132 -7 3 -8 1 -4 -5 10 -16 -22 -74 -36 -66 -7 4 -8 3 -4 -4 8 -13
-23 -74 -34 -67 -3 2 -14 -10 -24 -28 l-18 -32 22 25 c15 17 12 8 -9 -30 -17
-30 -35 -54 -41 -53 -5 2 -7 -3 -4 -10 2 -7 -3 -21 -11 -32 -15 -19 -16 -19
-5 5 10 23 10 24 -4 6 -9 -10 -13 -23 -10 -27 5 -9 -23 -69 -32 -69 -2 0 0 9
6 20 22 41 1 18 -24 -26 -17 -31 -20 -42 -9 -33 15 13 15 12 4 -9 -7 -12 -17
-20 -23 -16 -7 4 -8 3 -4 -4 9 -15 -22 -75 -34 -67 -6 3 -7 0 -5 -7 3 -8 -2
-22 -10 -33 -15 -19 -16 -19 -5 5 10 23 10 24 -4 6 -9 -10 -13 -23 -10 -27 8
-14 -66 -140 -78 -132 -7 3 -8 1 -4 -5 9 -15 -22 -75 -34 -67 -6 3 -7 0 -5 -7
3 -8 -2 -22 -10 -33 -15 -19 -16 -19 -5 5 10 23 10 24 -4 6 -9 -10 -13 -23
-10 -27 7 -11 -25 -71 -35 -65 -4 3 -15 -9 -25 -27 l-18 -32 22 25 21 25 -16
-33 c-9 -18 -20 -30 -25 -27 -6 3 -7 0 -5 -7 3 -8 -2 -22 -10 -33 -15 -19 -16
-19 -5 5 10 23 10 24 -4 6 -9 -10 -13 -23 -10 -27 3 -5 -2 -22 -11 -39 -18
-34 -31 -41 -15 -7 11 21 10 21 -4 3 -9 -10 -13 -23 -10 -27 7 -11 -25 -71
-35 -65 -4 3 -15 -9 -25 -27 l-18 -32 22 25 21 25 -16 -33 c-9 -18 -20 -30
-25 -27 -6 3 -7 0 -5 -7 3 -8 -2 -22 -10 -33 -15 -19 -16 -19 -5 5 10 23 10
24 -4 6 -9 -10 -13 -23 -10 -27 8 -14 -66 -140 -78 -132 -7 3 -8 1 -4 -5 9
-15 -22 -75 -34 -67 -6 3 -7 0 -5 -7 3 -8 -2 -22 -10 -33 -15 -19 -16 -19 -5
5 10 23 10 24 -4 6 -9 -10 -13 -23 -10 -27 8 -14 -26 -70 -38 -63 -7 4 -8 3
-4 -4 4 -7 -9 -41 -29 -77 l-37 -65 37 -66 c21 -37 32 -64 26 -60 -7 5 -9 1
-5 -8 3 -9 10 -14 15 -11 10 7 42 -52 35 -64 -3 -4 1 -17 10 -27 14 -18 15
-18 4 4 -16 33 -3 26 15 -8 9 -17 14 -34 11 -39 -3 -4 1 -17 10 -27 14 -18 14
-17 4 6 -11 24 -10 24 5 5 8 -11 13 -25 10 -33 -2 -7 -1 -10 5 -7 12 8 43 -52
34 -67 -4 -7 -3 -8 4 -4 12 7 46 -49 38 -63 -3 -4 1 -17 10 -27 14 -18 14 -17
4 6 -11 24 -10 24 5 5 8 -11 13 -25 10 -33 -2 -7 -1 -10 5 -7 12 8 43 -52 34
-67 -4 -7 -3 -8 4 -4 6 4 16 -4 23 -16 12 -22 11 -22 -6 -8 -17 14 -17 14 -5
-7 8 -12 17 -20 20 -18 11 7 42 -54 34 -67 -4 -7 -3 -8 4 -4 14 8 46 -50 36
-66 -4 -7 -3 -8 4 -4 14 8 46 -50 36 -66 -4 -7 -3 -8 4 -4 6 4 16 -4 23 -16
12 -22 11 -22 -6 -8 -17 14 -17 14 -5 -7 8 -12 17 -20 20 -18 9 6 52 -73 46
-83 -3 -5 1 -18 10 -28 14 -18 14 -17 4 6 -11 24 -10 24 5 5 8 -11 13 -25 10
-33 -2 -7 -1 -11 4 -7 11 6 84 -121 77 -134 -3 -4 1 -17 10 -27 14 -18 14 -17
4 6 -11 24 -10 24 5 5 8 -11 13 -25 10 -33 -2 -7 -1 -10 5 -7 5 3 16 -9 25
-27 l16 -33 -21 25 -22 25 18 -32 c10 -18 21 -30 25 -27 10 6 42 -54 35 -65
-3 -4 1 -17 10 -27 14 -18 15 -18 4 4 -16 33 -3 26 15 -8 9 -17 14 -34 11 -39
-3 -4 1 -17 10 -27 14 -18 14 -17 4 6 -11 24 -10 24 5 5 8 -11 13 -25 10 -33
-2 -7 -1 -10 5 -7 5 3 16 -9 25 -27 l16 -33 -21 25 c-21 24 -21 24 1 -15 24
-44 49 -74 30 -37 -6 12 -9 22 -7 22 9 0 37 -60 32 -69 -3 -4 1 -17 10 -27 14
-18 15 -18 4 4 -16 34 -3 26 16 -9 9 -18 11 -28 4 -24 -7 4 -5 -6 4 -24 19
-35 32 -43 16 -9 -11 22 -11 22 5 3 8 -11 13 -25 10 -33 -2 -7 -1 -10 5 -7 5
3 16 -9 25 -27 l16 -33 -21 25 c-21 24 -21 24 1 -15 24 -44 49 -74 30 -38 -6
13 -9 23 -7 23 9 0 37 -60 32 -69 -3 -4 1 -17 10 -27 14 -18 15 -18 4 3 -16
34 -3 27 15 -7 9 -17 14 -34 11 -39 -3 -4 1 -17 10 -27 14 -18 14 -17 4 6 -11
24 -10 24 5 5 8 -11 13 -25 10 -33 -2 -7 0 -10 5 -7 6 3 14 -5 20 -19 l10 -26
1170 0 1170 0 10 26 c6 15 14 22 22 18 7 -4 8 -3 4 4 -9 15 22 75 34 67 6 -3
7 0 5 7 -3 8 2 22 10 33 15 19 16 19 5 -5 -10 -23 -10 -24 4 -6 9 10 13 23 10
27 -8 14 66 140 78 132 7 -3 8 -1 4 5 -9 15 22 75 34 67 6 -3 7 0 5 7 -3 8 2
22 10 33 15 19 16 19 5 -5 -10 -23 -10 -24 4 -6 9 10 13 23 10 27 -8 14 26 70
38 63 7 -4 8 -3 4 4 -9 15 22 75 34 67 6 -3 7 0 5 7 -3 8 2 22 10 33 15 19 16
19 5 -5 -10 -23 -10 -24 4 -6 9 10 13 23 10 27 -3 5 2 22 11 39 18 34 31 41
15 8 -11 -22 -10 -22 4 -4 9 10 13 23 10 27 -8 14 26 70 38 63 7 -4 8 -3 4 4
-9 15 22 75 34 67 6 -3 7 0 5 7 -3 8 2 22 10 33 15 19 16 19 5 -5 -10 -23 -10
-24 4 -6 9 10 13 23 10 27 -8 14 66 140 78 132 7 -3 8 -1 4 6 -4 6 7 36 24 66
31 54 51 76 30 33 -11 -22 -10 -22 4 -4 9 10 13 23 10 27 -8 14 26 70 38 63 7
-4 8 -3 4 4 -9 15 22 75 34 67 6 -3 7 0 5 7 -3 8 2 22 10 33 15 19 16 19 5 -5
-10 -23 -10 -24 4 -6 9 10 13 23 10 27 -3 5 2 22 11 39 18 34 31 41 15 7 -11
-21 -10 -21 4 -3 9 10 13 23 10 27 -8 14 26 70 38 63 7 -4 8 -3 4 4 -9 15 22
75 34 67 6 -3 7 0 5 7 -3 8 2 22 10 33 15 19 16 19 5 -5 -10 -23 -10 -24 4 -6
9 10 13 23 10 27 -8 14 66 140 78 132 7 -3 8 -1 4 5 -9 15 22 75 34 67 6 -3 7
0 5 7 -3 8 2 22 10 33 15 19 16 19 5 -5 -10 -23 -10 -24 4 -6 9 10 13 23 10
27 -8 14 26 70 38 63 7 -4 8 -3 4 5 -4 6 7 36 24 66 31 54 51 76 30 33 -10
-20 -9 -21 2 -7 16 20 15 87 -2 103 -10 9 -10 6 -1 -11 23 -46 2 -21 -29 32
-17 30 -28 60 -24 66 4 8 3 9 -4 5 -12 -7 -46 49 -38 63 3 4 -1 17 -10 27 -14
18 -14 17 -4 -6 11 -24 10 -24 -5 -5 -8 11 -13 25 -10 33 2 7 1 10 -5 7 -12
-8 -43 52 -34 67 4 6 3 8 -4 5 -12 -8 -86 118 -78 132 3 4 -1 17 -10 27 -14
18 -14 17 -4 -6 11 -24 10 -24 -5 -5 -8 11 -13 25 -10 33 2 7 1 10 -5 7 -12
-8 -43 52 -34 67 4 7 3 8 -4 4 -12 -7 -46 49 -38 63 3 4 -1 17 -10 27 -14 18
-15 18 -4 -3 16 -34 3 -27 -15 7 -9 17 -14 34 -11 39 3 4 -1 17 -10 27 -14 18
-14 17 -4 -6 11 -24 10 -24 -5 -5 -8 11 -13 25 -10 33 2 7 1 10 -5 7 -12 -8
-43 52 -34 67 4 7 3 8 -4 4 -12 -7 -46 49 -38 63 3 4 -1 17 -10 27 -14 18 -14
17 -4 -6 11 -24 10 -24 -5 -5 -8 11 -13 25 -10 33 2 7 1 10 -5 7 -12 -8 -43
52 -34 67 4 6 3 8 -4 5 -12 -8 -86 118 -78 132 3 4 -1 17 -10 27 -14 18 -14
17 -4 -6 11 -24 10 -24 -5 -5 -8 11 -13 25 -10 33 2 7 1 10 -5 7 -12 -8 -43
52 -34 67 4 7 3 8 -4 4 -12 -7 -46 49 -38 63 3 4 -1 17 -10 27 -14 18 -15 18
-4 -3 16 -34 3 -27 -15 7 -9 17 -14 34 -11 39 3 4 -1 17 -10 27 -14 18 -14 17
-4 -6 11 -24 10 -24 -5 -5 -8 11 -13 25 -10 33 2 7 1 10 -5 7 -12 -8 -43 52
-34 67 4 7 3 8 -4 4 -12 -7 -46 49 -38 63 3 4 -1 17 -10 27 -14 18 -14 17 -4
-6 11 -24 10 -24 -5 -5 -8 11 -13 25 -10 33 2 7 1 10 -5 7 -12 -8 -43 52 -34
67 4 6 3 8 -4 5 -12 -8 -86 118 -78 132 3 4 -1 17 -10 27 -14 18 -14 17 -4 -6
11 -24 10 -24 -5 -5 -8 11 -13 25 -10 33 2 7 1 10 -5 7 -12 -8 -43 52 -34 67
4 7 3 8 -5 4 -6 -4 -14 0 -17 8 -6 14 -125 16 -1184 16 -1059 0 -1178 -2
-1184 -16z m149 -262 c-3 -7 -1 -10 4 -7 9 5 64 -85 67 -109 3 -32 5 -36 14
-33 6 1 26 -27 46 -62 20 -35 31 -61 25 -56 -8 4 -7 -4 3 -24 19 -35 32 -43
16 -8 -11 21 -11 21 5 2 8 -11 13 -25 10 -33 -2 -7 -1 -10 5 -7 5 3 14 -5 21
-17 12 -22 11 -22 -6 -8 -17 14 -17 14 -5 -7 8 -12 18 -19 24 -16 5 4 7 -1 3
-11 -4 -9 -3 -15 2 -12 12 8 113 -172 105 -186 -4 -7 -3 -8 4 -4 13 8 46 -50
37 -65 -4 -5 -2 -8 4 -7 6 2 25 -22 42 -52 21 -38 24 -47 9 -30 l-22 25 18
-32 c10 -18 20 -30 23 -28 5 6 17 -12 61 -89 18 -33 28 -56 21 -52 -8 6 -7 -3
3 -23 9 -17 19 -31 22 -31 2 0 -1 10 -7 23 -20 39 7 4 37 -47 15 -27 23 -46
16 -42 -8 5 -10 2 -6 -8 3 -9 10 -14 14 -11 11 7 112 -174 104 -187 -4 -7 -3
-8 4 -4 13 8 46 -50 37 -65 -4 -5 -2 -8 4 -7 6 2 25 -22 42 -52 21 -38 24 -47
9 -30 l-22 25 18 -32 c10 -18 21 -30 24 -28 4 2 30 -37 58 -87 l52 -90 0 -377
0 -376 -52 80 c-28 44 -52 88 -53 97 -1 10 -5 21 -10 25 -4 5 -5 2 -1 -4 4 -7
5 -13 3 -13 -11 0 -138 210 -133 219 4 5 1 13 -5 17 -8 4 -9 3 -5 -4 4 -7 5
-12 3 -12 -11 0 -228 351 -222 359 3 5 0 13 -6 17 -8 4 -9 3 -5 -4 4 -7 5 -12
3 -12 -11 0 -68 100 -63 109 4 5 1 13 -5 17 -8 4 -9 3 -5 -4 4 -7 5 -12 3 -12
-11 0 -138 210 -133 219 4 5 1 13 -5 17 -8 4 -9 3 -5 -4 4 -7 5 -12 3 -12 -11
0 -138 210 -133 219 4 5 1 13 -5 17 -8 4 -9 3 -5 -4 4 -7 5 -12 3 -12 -11 0
-228 351 -222 359 3 5 0 13 -6 17 -8 4 -9 3 -5 -4 4 -7 5 -12 3 -12 -11 0 -68
100 -63 109 4 5 1 13 -5 17 -8 5 -9 3 -4 -7 5 -8 4 -11 -1 -6 -5 5 -36 51 -70
104 l-61 95 65 114 c37 65 69 111 75 107 6 -3 7 -1 3 5 -9 15 53 124 66 115 7
-3 8 -1 4 5 -7 12 1 31 42 96 l24 39 24 -39 c13 -21 22 -45 19 -52z m2141 47
c14 -23 27 -51 28 -63 3 -23 23 -66 32 -66 2 0 0 9 -6 20 -6 11 -9 20 -6 20
10 0 66 -112 61 -121 -4 -5 -2 -8 4 -7 6 2 25 -22 42 -52 21 -38 24 -47 9 -30
l-22 25 18 -32 c10 -18 21 -30 24 -28 4 3 15 -11 25 -29 19 -34 14 -73 -6 -60
-7 4 -9 3 -5 -4 7 -12 -62 -134 -73 -128 -4 3 -13 -5 -21 -17 -12 -20 -12 -21
4 -8 14 12 13 7 -4 -22 -12 -20 -27 -34 -33 -30 -5 3 -7 1 -3 -5 3 -6 -3 -27
-15 -46 -22 -38 -37 -50 -19 -16 19 35 3 21 -20 -17 -17 -29 -18 -34 -4 -22
16 13 16 12 5 -9 -7 -12 -16 -20 -21 -17 -6 3 -7 0 -4 -8 3 -8 0 -18 -7 -23
-8 -5 -10 -3 -5 7 4 8 0 5 -9 -6 -27 -32 -40 -65 -15 -35 18 21 17 17 -4 -20
-15 -25 -31 -44 -37 -42 -6 1 -8 -2 -5 -7 8 -13 -64 -132 -75 -125 -5 3 -6 -1
-3 -9 3 -8 0 -18 -7 -23 -8 -4 -10 -3 -5 4 15 25 -3 10 -20 -15 -17 -27 -17
-28 1 -13 17 14 18 14 6 -8 -7 -12 -17 -20 -23 -16 -6 4 -8 3 -4 -4 9 -14 -64
-133 -77 -125 -5 3 -7 1 -3 -5 9 -14 -64 -133 -77 -125 -6 3 -7 1 -3 -5 9 -15
-114 -213 -127 -205 -5 3 -7 1 -3 -5 3 -6 -3 -27 -15 -46 -22 -38 -37 -50 -19
-16 19 35 3 21 -20 -17 -17 -29 -18 -34 -4 -22 16 13 16 12 5 -9 -7 -12 -17
-20 -23 -16 -6 4 -8 3 -4 -4 7 -12 -62 -134 -73 -128 -4 3 -13 -5 -21 -17 -12
-20 -12 -21 4 -7 10 8 -3 -20 -29 -63 -25 -42 -49 -77 -51 -77 -3 0 0 9 6 20
19 35 3 21 -20 -17 -17 -29 -18 -34 -4 -22 16 13 16 12 5 -9 -7 -12 -17 -20
-23 -16 -6 4 -8 3 -4 -4 7 -12 -62 -134 -73 -128 -4 3 -13 -5 -21 -17 -12 -20
-12 -21 4 -8 9 8 1 -13 -20 -47 -20 -34 -40 -59 -45 -56 -5 3 -6 -1 -3 -9 3
-8 0 -18 -7 -23 -8 -5 -10 -3 -4 6 6 9 4 11 -4 6 -7 -5 -10 -14 -8 -21 3 -6
-3 -25 -14 -41 -19 -29 -19 -26 -19 342 l0 371 46 82 c26 46 51 78 57 74 6 -3
7 -1 3 5 -10 16 63 144 76 135 7 -3 8 -1 4 5 -9 16 133 264 147 255 6 -3 7 -1
3 5 -10 16 22 74 36 66 7 -4 8 -3 4 4 -9 15 93 194 107 185 6 -3 7 -1 3 5 -10
16 63 144 76 135 7 -3 8 -1 4 5 -10 16 22 74 36 66 7 -4 8 -3 4 4 -9 15 93
194 107 185 6 -3 7 -1 3 5 -10 16 22 74 36 66 7 -4 8 -3 4 4 -9 15 133 264
147 255 6 -3 7 -1 3 5 -10 16 22 74 36 66 7 -4 8 -3 4 4 -5 9 32 92 41 92 2 0
15 -19 29 -41z m460 -799 c22 -40 23 -42 4 -20 l-22 25 18 -32 c10 -18 21 -30
25 -27 5 3 18 -14 29 -36 16 -31 18 -45 10 -60 -6 -11 -13 -20 -16 -20 -3 0
-2 5 2 12 4 7 3 8 -4 4 -6 -4 -9 -12 -6 -19 2 -7 -3 -21 -12 -32 -8 -11 -13
-13 -9 -5 9 21 -24 -20 -36 -45 -8 -15 -5 -13 12 5 l21 25 -18 -30 c-10 -16
-33 -56 -52 -87 -19 -32 -39 -55 -45 -51 -5 3 -7 1 -3 -5 9 -14 -64 -133 -77
-125 -5 3 -7 1 -3 -5 7 -12 -62 -134 -73 -128 -4 3 -13 -5 -21 -17 -12 -21
-12 -21 5 -7 9 8 -11 -31 -45 -88 -35 -57 -67 -99 -73 -95 -6 3 -7 1 -3 -5 8
-13 -62 -134 -73 -127 -4 2 -13 -6 -21 -18 -12 -20 -12 -21 4 -8 9 8 1 -13
-20 -47 -20 -34 -40 -59 -45 -56 -5 3 -6 -1 -3 -9 3 -8 0 -18 -7 -23 -8 -5
-10 -3 -5 7 4 8 0 5 -9 -6 -9 -11 -21 -29 -26 -40 -8 -15 -5 -13 12 5 l21 25
-18 -30 c-10 -16 -33 -56 -52 -87 -19 -32 -39 -55 -45 -51 -5 3 -7 1 -3 -5 3
-6 -3 -27 -15 -46 -22 -38 -37 -50 -19 -16 19 35 3 21 -20 -17 -17 -29 -18
-34 -4 -22 16 13 16 12 5 -9 -7 -12 -17 -20 -23 -16 -6 4 -8 3 -4 -4 7 -12
-62 -134 -73 -128 -4 3 -13 -5 -21 -17 -12 -20 -12 -21 4 -7 10 8 -3 -20 -29
-63 -25 -42 -49 -77 -51 -77 -3 0 0 9 6 20 19 35 3 21 -20 -17 -17 -29 -18
-34 -4 -22 16 13 16 12 5 -9 -7 -12 -17 -20 -23 -16 -6 4 -8 3 -4 -4 9 -14
-64 -133 -77 -125 -5 3 -7 1 -3 -5 9 -14 -64 -133 -77 -125 -6 3 -7 1 -3 -5 9
-15 -114 -213 -127 -205 -5 3 -7 1 -3 -5 3 -6 -3 -27 -15 -46 -22 -38 -37 -50
-19 -16 19 35 3 21 -20 -17 -17 -29 -18 -34 -4 -22 16 13 16 12 5 -9 -7 -12
-17 -20 -23 -16 -7 4 -8 3 -4 -4 3 -6 -24 -61 -61 -121 l-68 -111 -3 344 -2
344 45 73 c26 41 51 73 56 71 6 -1 8 2 5 7 -9 14 64 132 77 124 5 -3 7 -1 3 5
-9 14 64 133 77 125 5 -3 7 -1 3 5 -8 13 111 208 125 204 6 -1 8 2 4 7 -5 9
131 241 141 241 3 0 2 -5 -2 -12 -4 -7 -3 -8 5 -4 6 4 9 12 6 17 -9 13 126
230 138 222 6 -3 7 -1 3 5 -6 10 129 242 140 242 3 0 2 -5 -2 -12 -4 -7 -3 -8
5 -4 6 4 9 12 6 17 -9 13 126 230 138 222 6 -3 7 -1 3 5 -6 10 129 242 140
242 3 0 2 -5 -2 -12 -4 -7 -3 -8 5 -4 6 4 9 12 6 17 -4 5 45 92 107 193 l113
184 53 -91 c29 -51 65 -112 78 -137z m-2961 95 c21 -33 31 -54 21 -46 -14 12
-13 7 4 -22 24 -41 37 -50 20 -14 -11 22 -11 22 5 2 9 -11 21 -29 27 -40 10
-19 10 -19 -7 -5 -18 15 -18 14 -1 -12 17 -25 36 -42 21 -18 -3 6 -4 10 -2 10
11 0 68 -100 63 -109 -4 -5 -1 -13 5 -17 8 -5 9 -3 4 6 -6 9 -4 11 4 6 7 -5
10 -15 7 -23 -3 -8 -2 -11 4 -8 11 7 33 -32 25 -45 -3 -5 0 -12 6 -16 8 -4 9
-3 5 4 -4 7 -5 12 -3 12 3 0 76 -111 163 -247 86 -137 162 -255 168 -263 10
-13 9 -13 -7 -1 -16 13 -15 9 3 -22 23 -38 39 -52 20 -17 -18 33 -3 22 20 -15
12 -19 19 -39 16 -44 -4 -5 -1 -13 5 -17 8 -4 9 -3 5 4 -4 7 -5 12 -3 12 11 0
68 -100 63 -109 -4 -5 -1 -13 5 -17 8 -5 10 -2 5 7 -15 27 32 -35 49 -65 l17
-31 -22 25 c-25 30 -12 -3 15 -35 9 -11 14 -14 10 -7 -3 6 -4 12 -2 12 5 0 82
-119 124 -189 l15 -26 -21 25 c-17 18 -20 20 -12 5 5 -11 17 -29 26 -40 9 -11
13 -13 9 -5 -19 40 21 -16 96 -135 46 -71 75 -123 66 -115 -14 10 -12 5 4 -23
24 -40 38 -51 19 -14 -20 38 5 5 60 -80 29 -45 50 -86 47 -92 -4 -5 -1 -13 5
-17 8 -5 10 -2 5 7 -13 24 31 -33 50 -65 17 -30 17 -31 -1 -16 -18 15 -18 14
-1 -12 17 -25 36 -42 21 -18 -15 24 4 7 21 -18 17 -26 17 -27 -1 -12 -17 14
-17 14 -5 -7 8 -12 19 -21 24 -20 8 1 12 -113 14 -358 l2 -360 -50 75 c-28 41
-48 80 -45 87 2 7 -1 15 -7 19 -7 4 -8 3 -4 -4 4 -7 5 -12 3 -12 -11 0 -88
130 -83 139 4 5 1 13 -5 17 -8 4 -9 3 -5 -4 4 -7 5 -12 3 -12 -11 0 -88 130
-83 139 4 5 1 13 -5 17 -8 4 -9 3 -5 -4 4 -7 5 -12 3 -12 -11 0 -88 130 -83
139 4 5 1 13 -5 17 -8 4 -9 3 -5 -4 4 -7 5 -12 3 -12 -11 0 -88 130 -83 139 4
5 1 13 -5 17 -8 5 -9 3 -4 -7 5 -10 5 -11 -2 -4 -27 25 -464 716 -458 724 3 5
0 13 -6 17 -8 4 -9 3 -5 -4 4 -7 5 -12 3 -12 -11 0 -88 130 -83 139 4 5 1 13
-5 17 -8 4 -9 3 -5 -4 4 -7 5 -12 3 -12 -11 0 -88 130 -83 139 4 5 1 13 -5 17
-8 4 -9 3 -5 -4 4 -7 5 -12 3 -12 -11 0 -88 130 -83 139 4 5 1 13 -5 17 -8 4
-9 3 -5 -4 4 -7 5 -12 3 -12 -11 0 -88 130 -83 139 4 5 1 13 -5 17 -8 4 -9 3
-5 -4 4 -7 5 -12 3 -12 -11 0 -88 130 -83 139 4 5 1 13 -5 17 -8 4 -9 3 -5 -4
4 -7 5 -12 3 -12 -11 0 -88 130 -83 139 4 5 1 13 -5 17 -8 4 -9 3 -5 -4 4 -7
5 -12 3 -12 -11 0 -88 130 -83 139 4 5 1 13 -5 17 -8 5 -9 3 -4 -6 5 -9 4 -11
-3 -6 -7 4 -12 14 -12 23 0 26 101 193 113 186 6 -3 7 -1 3 6 -4 6 16 51 45
101 46 80 53 88 64 73 7 -10 29 -45 50 -78z m3134 -422 c-12 -15 -12 -16 3
-10 20 7 44 -26 32 -45 -4 -7 -3 -8 4 -4 6 4 16 -4 23 -16 11 -21 11 -22 -5
-9 -15 13 -15 12 1 -17 10 -17 21 -30 25 -29 5 1 24 -27 44 -62 20 -35 31 -61
25 -56 -8 4 -7 -4 3 -24 19 -35 32 -43 16 -8 -11 21 -11 21 5 2 8 -11 13 -25
10 -33 -2 -7 -1 -10 5 -7 5 3 16 -9 25 -27 l16 -33 -21 25 c-21 24 -21 24 1
-15 24 -44 49 -74 30 -37 -6 12 -10 22 -7 22 11 0 106 -182 100 -192 -4 -7 -3
-8 4 -4 14 8 46 -50 36 -66 -4 -7 -3 -8 4 -4 6 3 16 -2 22 -13 8 -17 4 -31
-21 -76 -17 -31 -35 -52 -41 -48 -7 3 -8 1 -4 -5 9 -15 -22 -75 -34 -67 -6 3
-7 0 -5 -7 3 -8 -2 -22 -10 -33 -16 -19 -16 -19 -5 3 16 34 3 26 -16 -9 -10
-20 -11 -28 -3 -24 6 5 -5 -21 -25 -56 -20 -35 -41 -63 -47 -61 -6 1 -8 -2 -4
-7 8 -15 -95 -192 -108 -184 -6 3 -7 1 -3 -6 8 -12 -103 -213 -114 -206 -3 2
-12 -6 -20 -18 -12 -21 -12 -21 5 -7 17 14 18 14 6 -8 -7 -12 -17 -20 -23 -16
-7 4 -8 3 -4 -4 10 -16 -22 -74 -36 -66 -7 4 -8 3 -4 -4 7 -12 -63 -144 -74
-137 -3 2 -14 -10 -24 -28 l-18 -32 22 25 c15 17 12 8 -9 -30 -17 -30 -36 -54
-42 -52 -6 1 -8 -2 -4 -8 6 -9 -41 -100 -52 -100 -2 0 -1 5 3 12 4 7 3 8 -5 4
-6 -4 -9 -11 -6 -16 7 -11 -5 -41 -14 -35 -4 2 -15 -10 -25 -28 l-18 -32 22
25 22 25 -14 -25 c-8 -14 -39 -67 -68 -118 -29 -50 -54 -92 -56 -92 -3 0 0 9
6 20 22 41 1 18 -24 -26 -17 -31 -20 -42 -9 -33 15 13 15 12 4 -9 -7 -12 -17
-20 -23 -16 -7 4 -8 3 -4 -4 6 -10 -89 -192 -100 -192 -3 0 0 9 6 20 21 39 1
19 -24 -25 l-27 -45 -447 -2 -447 -3 445 -5 445 -6 -453 -1 c-449 -2 -452 -2
-442 18 6 11 16 16 22 13 6 -4 8 -3 4 4 -8 13 271 468 285 464 6 -1 8 2 4 7
-7 13 273 467 286 463 6 -1 8 2 5 7 -9 14 64 132 77 124 6 -3 7 -1 3 5 -6 10
49 112 60 112 3 0 2 -5 -2 -12 -4 -7 -3 -8 5 -4 6 4 9 12 6 17 -9 13 126 230
138 222 6 -3 7 -1 3 5 -9 14 64 133 77 125 5 -3 7 -1 3 5 -9 14 64 133 77 125
6 -3 7 -1 3 5 -9 15 114 213 127 205 6 -3 7 -1 3 5 -8 13 141 258 155 254 6
-1 8 2 5 7 -9 14 114 212 127 204 5 -3 7 -1 3 5 -9 14 64 133 77 125 6 -3 7
-1 3 6 -7 11 9 41 21 41 3 0 -1 -8 -8 -17z m-3488 -78 c10 -20 10 -20 -5 -1
-9 11 -16 16 -16 10 0 -5 10 -20 21 -34 11 -14 18 -19 14 -12 -13 26 4 10 27
-25 41 -64 62 -101 44 -79 -9 11 -16 16 -16 10 0 -5 10 -20 21 -34 11 -14 18
-19 14 -12 -12 23 3 12 21 -15 17 -27 17 -28 -1 -13 -18 14 46 -94 68 -115 7
-7 8 -6 3 3 -14 24 2 12 20 -15 17 -27 17 -28 -1 -13 -18 14 46 -94 68 -115 7
-7 8 -6 3 3 -14 24 2 12 20 -15 16 -26 16 -27 0 -14 -14 12 -13 7 4 -22 24
-40 38 -51 19 -14 -19 36 -2 15 42 -53 23 -36 34 -58 24 -50 -12 10 -11 5 5
-23 24 -40 38 -51 19 -14 -20 38 -3 15 60 -81 63 -95 69 -108 49 -96 -7 4 -8
3 -4 -5 4 -6 11 -9 16 -6 11 7 33 -32 25 -45 -3 -5 0 -12 6 -16 8 -5 9 -3 4 6
-6 9 -4 11 4 6 7 -5 10 -14 7 -22 -3 -8 0 -13 6 -11 6 1 13 -4 16 -12 3 -9 0
-11 -9 -6 -8 5 -11 4 -6 -1 5 -5 14 -9 19 -9 6 0 13 -6 16 -14 3 -9 0 -11 -8
-6 -9 5 -11 4 -6 -4 4 -6 11 -9 16 -6 11 7 33 -32 25 -45 -3 -5 0 -12 6 -16 8
-5 9 -3 4 6 -6 9 -4 11 4 6 7 -5 10 -14 7 -22 -3 -8 0 -13 6 -11 7 1 13 -8 14
-21 1 -13 7 -29 14 -35 10 -10 10 -7 1 11 -18 34 -5 26 19 -13 12 -19 19 -39
16 -44 -4 -5 -1 -13 5 -17 8 -5 9 -3 4 6 -6 9 -4 11 4 6 7 -5 10 -14 7 -22 -3
-8 0 -13 6 -11 7 1 13 -8 14 -21 1 -13 7 -29 14 -35 10 -10 10 -7 1 11 -18 34
-5 26 19 -13 12 -19 19 -39 16 -44 -4 -5 -1 -13 5 -17 8 -4 9 -3 5 4 -4 7 -5
12 -3 12 11 0 88 -130 83 -139 -4 -5 -1 -13 5 -17 8 -4 9 -3 5 4 -4 7 -5 12
-3 12 11 0 88 -130 83 -139 -4 -5 -1 -13 5 -17 8 -4 9 -3 5 4 -4 7 -5 12 -3
12 11 0 88 -130 83 -139 -4 -5 -1 -13 5 -17 8 -4 9 -3 5 4 -4 7 -5 12 -3 12
11 0 88 -130 83 -139 -4 -5 -1 -13 5 -17 8 -5 10 -2 5 7 -17 31 31 -35 68 -93
22 -35 31 -56 21 -48 -18 15 -18 14 -1 -13 18 -27 34 -39 20 -14 -5 8 -4 9 3
2 22 -21 86 -129 68 -115 -18 15 -18 14 -1 -12 17 -25 36 -42 21 -18 -3 6 -4
10 -2 10 5 0 177 -267 177 -275 0 -3 -201 -4 -447 -3 l-448 3 445 5 c245 3
441 6 435 8 -5 1 -206 2 -445 2 l-435 0 -18 22 c-18 23 -18 23 -2 -9 34 -70 4
-27 -64 92 -39 69 -69 131 -65 137 4 6 3 8 -3 5 -14 -9 -156 240 -147 255 4 7
3 8 -4 4 -14 -8 -46 50 -36 66 4 6 3 8 -3 5 -14 -9 -156 239 -147 255 4 6 3 8
-4 5 -13 -9 -75 100 -66 115 4 7 3 8 -4 4 -14 -8 -46 50 -36 66 4 6 3 8 -3 5
-14 -9 -116 170 -107 185 4 7 3 8 -4 4 -14 -8 -46 50 -36 66 4 6 3 8 -3 5 -14
-9 -116 170 -107 185 4 6 3 8 -3 5 -14 -9 -116 170 -107 185 4 7 3 8 -4 4 -14
-8 -46 50 -36 66 4 6 3 8 -4 5 -6 -4 -23 17 -41 48 l-31 55 31 55 c18 31 35
52 41 48 7 -3 8 -1 4 5 -10 16 22 74 36 66 7 -4 8 -3 4 4 -9 15 53 124 66 115
7 -3 8 -1 4 5 -10 16 22 74 36 66 7 -4 8 -3 4 4 -9 15 93 194 107 185 6 -3 7
-1 3 5 -4 7 3 30 15 52 23 41 27 41 50 -5z m2337 -2652 c-324 -2 -852 -2
-1175 0 -324 1 -59 2 587 2 646 0 911 -1 588 -2z"/>
</g>
</svg>
